<svg width="23" height="23" viewBox="0 0 23 23" fill="none" xmlns="http://www.w3.org/2000/svg">
<path d="M10.4548 11.4997C10.4548 12.0747 10.9253 12.5452 11.5003 12.5452C12.0753 12.5452 12.5458 12.0747 12.5458 11.4997C12.5458 10.9247 12.0753 10.4542 11.5003 10.4542C10.9253 10.4542 10.4548 10.9247 10.4548 11.4997ZM6.2729 10.4542C6.84792 10.4542 7.31838 10.9247 7.31838 11.4997C7.31838 12.0747 6.84792 12.5452 6.2729 12.5452C5.69789 12.5452 5.22742 12.0747 5.22742 11.4997C5.22742 10.9247 5.69789 10.4542 6.2729 10.4542ZM16.7277 10.4542C17.3028 10.4542 17.7732 10.9247 17.7732 11.4997C17.7732 12.0747 17.3028 12.5452 16.7277 12.5452C16.1527 12.5452 15.6823 12.0747 15.6823 11.4997C15.6823 10.9247 16.1527 10.4542 16.7277 10.4542ZM0 11.4997C0.0104542 17.8458 5.15423 22.9895 11.5003 23C13.194 23 14.8668 22.6236 16.3932 21.9022L20.6588 22.9686C20.7424 22.9895 20.826 23 20.9097 23C21.4847 23 21.9552 22.5295 21.9552 21.9545C21.9552 21.9127 21.9552 21.8709 21.9447 21.8291L21.3906 17.3648C24.6316 11.897 22.8229 4.85041 17.355 1.60941C11.8871 -1.63159 4.84059 0.177096 1.59959 5.64497C0.554108 7.41184 0 9.44008 0 11.4997ZM2.09097 11.4997C2.09097 6.30363 6.29381 2.09033 11.4899 2.07988C16.6859 2.06942 20.9097 6.27227 20.9097 11.4683C20.9097 13.2665 20.3974 15.0334 19.4251 16.5598C19.2892 16.7689 19.2369 17.0094 19.2683 17.2498L19.6865 20.564L16.5291 19.7799C16.4455 19.759 16.3618 19.7485 16.2782 19.7485C16.1109 19.7485 15.9436 19.7904 15.7973 19.8636C14.4695 20.5536 12.9954 20.909 11.5003 20.909C6.31472 20.909 2.10142 16.6957 2.09097 11.4997Z" fill="black"/>
</svg>
