<svg width="23" height="22" viewBox="0 0 23 22" fill="none" xmlns="http://www.w3.org/2000/svg">
<path d="M21.9644 1.23868L15.259 21.3645C15.1452 21.706 14.8417 21.9526 14.4813 22H14.358C14.0355 22 13.732 21.8388 13.5613 21.5637L10.4314 16.6413C10.1469 16.205 10.2797 15.617 10.716 15.3325C11.1522 15.0479 11.7403 15.1712 12.0248 15.617L12.0343 15.6265L14.0924 18.8891L19.5649 2.4432L3.13794 7.91569L6.37211 9.9738C6.81788 10.2583 6.95066 10.8369 6.66613 11.2826C6.3816 11.7284 5.80305 11.8612 5.35728 11.5767L0.434887 8.4563C-0.00139451 8.17177 -0.134176 7.58373 0.150356 7.13797C0.264168 6.95776 0.444372 6.82498 0.643544 6.75859L20.7694 0.0436462C21.1014 -0.060682 21.4713 0.0246775 21.7178 0.271271C21.9739 0.517866 22.0688 0.887757 21.9644 1.23868ZM14.3769 7.65012C14.007 7.28023 13.4095 7.28023 13.0396 7.65012L6.33418 14.3556C5.96428 14.7255 5.96428 15.323 6.33418 15.6929C6.70407 16.0628 7.30158 16.0628 7.67147 15.6929L14.3769 8.98742C14.7373 8.60805 14.7279 8.01053 14.358 7.65012H14.3769Z" fill="black"/>
</svg>
