<svg width="17" height="16" viewBox="0 0 17 16" fill="none" xmlns="http://www.w3.org/2000/svg">
<path d="M16.0839 7.25161C16.5742 7.69032 16.5742 8.43871 16.0839 8.85161L15.7742 9.13548C15.4387 9.44516 15.3097 9.93548 15.4903 10.3484L15.6452 10.7355C15.9032 11.329 15.5677 12 14.9484 12.1806L14.5355 12.2839C14.0968 12.4129 13.7871 12.8 13.7613 13.2645L13.7355 13.6774C13.7097 14.2452 13.2194 14.6839 12.6774 14.6839C12.6258 14.6839 12.5484 14.6839 12.4968 14.6581L12.0839 14.5806C12.0323 14.5806 11.9548 14.5548 11.9032 14.5548C11.5161 14.5548 11.1548 14.7613 10.9742 15.0968L10.7677 15.4581C10.5613 15.8194 10.2 16 9.83871 16C9.63226 16 9.4 15.9226 9.21935 15.7935L8.88387 15.5355C8.70323 15.4065 8.47097 15.329 8.26451 15.329C8.05806 15.329 7.82581 15.4065 7.64516 15.5355L7.30968 15.7677C7.12903 15.8968 6.89677 15.9742 6.69032 15.9742C6.30323 15.9742 5.94194 15.7677 5.76129 15.4065L5.55484 15.0452C5.37419 14.6839 5.0129 14.4774 4.62581 14.4774C4.57419 14.4774 4.49677 14.4774 4.44516 14.5032L3.95484 14.6581C3.90323 14.6581 3.82581 14.6839 3.77419 14.6839C3.20645 14.6839 2.74194 14.2452 2.71613 13.6774L2.69032 13.2645C2.66452 12.8 2.35484 12.4129 1.91613 12.2839L1.50323 12.1806C0.883871 12 0.574194 11.329 0.806452 10.7355L0.96129 10.3484C1.14194 9.93548 1.03871 9.44516 0.677419 9.13548L0.367742 8.85161C-0.122581 8.4129 -0.122581 7.66452 0.367742 7.25161L0.677419 6.96774C1.0129 6.65806 1.14194 6.16774 0.96129 5.75484L0.806452 5.36774C0.548387 4.77419 0.883871 4.10323 1.50323 3.92258L1.91613 3.81935C2.35484 3.69032 2.66452 3.30323 2.69032 2.83871L2.71613 2.42581C2.74194 1.85806 3.23226 1.41935 3.77419 1.41935C3.82581 1.41935 3.90323 1.41935 3.95484 1.44516L4.36774 1.52258C4.41935 1.52258 4.49677 1.54839 4.54839 1.54839C4.93548 1.54839 5.29677 1.34194 5.47742 1.00645L5.68387 0.645161C5.89032 0.283871 6.25161 0.103226 6.6129 0.103226C6.81935 0.103226 7.05161 0.180645 7.23226 0.309677L7.56774 0.567742C7.74839 0.696774 7.98065 0.774194 8.1871 0.774194C8.39355 0.774194 8.62581 0.696774 8.80645 0.567742L9.21935 0.206452C9.4 0.0774194 9.63226 0 9.83871 0C10.2258 0 10.5871 0.206452 10.7677 0.567742L10.9742 0.929032C11.1548 1.29032 11.5161 1.49677 11.9032 1.49677C11.9548 1.49677 12.0323 1.49677 12.0839 1.47097L12.4968 1.39355C12.5484 1.39355 12.6258 1.36774 12.6774 1.36774C13.2452 1.36774 13.7097 1.80645 13.7355 2.37419L13.7613 2.7871C13.7871 3.25161 14.0968 3.63871 14.5355 3.76774L14.9484 3.87097C15.5677 4.05161 15.8774 4.72258 15.6452 5.31613L15.4903 5.70323C15.3097 6.11613 15.4129 6.60645 15.7742 6.91613L16.0839 7.25161ZM11.6452 6.55484L10.3548 5.26452L7.3871 8.23226L6.14839 6.96774L4.85806 8.25806L6.09677 9.52258L7.3871 10.8129L8.67742 9.52258L11.6452 6.55484Z" fill="#6BA5D5"/>
</svg>
